<svg id="visual" viewBox="0 0 900 600" width="900" height="600" xmlns="http://www.w3.org/2000/svg" xmlns:xlink="http://www.w3.org/1999/xlink" version="1.1"><rect x="0" y="0" width="900" height="600" fill="#001220"></rect><path d="M0 223L21.5 222.3C43 221.7 86 220.3 128.8 233.3C171.7 246.3 214.3 273.7 257.2 290C300 306.3 343 311.7 385.8 302.3C428.7 293 471.3 269 514.2 255.5C557 242 600 239 642.8 247.7C685.7 256.3 728.3 276.7 771.2 285.7C814 294.7 857 292.3 878.5 291.2L900 290L900 601L878.5 601C857 601 814 601 771.2 601C728.3 601 685.7 601 642.8 601C600 601 557 601 514.2 601C471.3 601 428.7 601 385.8 601C343 601 300 601 257.2 601C214.3 601 171.7 601 128.8 601C86 601 43 601 21.5 601L0 601Z" fill="#c62368"></path><path d="M0 370L21.5 376.2C43 382.3 86 394.7 128.8 382.3C171.7 370 214.3 333 257.2 324.5C300 316 343 336 385.8 337.8C428.7 339.7 471.3 323.3 514.2 329.7C557 336 600 365 642.8 382C685.7 399 728.3 404 771.2 393C814 382 857 355 878.5 341.5L900 328L900 601L878.5 601C857 601 814 601 771.2 601C728.3 601 685.7 601 642.8 601C600 601 557 601 514.2 601C471.3 601 428.7 601 385.8 601C343 601 300 601 257.2 601C214.3 601 171.7 601 128.8 601C86 601 43 601 21.5 601L0 601Z" fill="#e95667"></path><path d="M0 451L21.5 449.8C43 448.7 86 446.3 128.8 428.8C171.7 411.3 214.3 378.7 257.2 371.2C300 363.7 343 381.3 385.8 395C428.7 408.7 471.3 418.3 514.2 425.7C557 433 600 438 642.8 437.2C685.7 436.3 728.3 429.7 771.2 423.2C814 416.7 857 410.3 878.5 407.2L900 404L900 601L878.5 601C857 601 814 601 771.2 601C728.3 601 685.7 601 642.8 601C600 601 557 601 514.2 601C471.3 601 428.7 601 385.8 601C343 601 300 601 257.2 601C214.3 601 171.7 601 128.8 601C86 601 43 601 21.5 601L0 601Z" fill="#fa7268"></path><path d="M0 489L21.5 476C43 463 86 437 128.8 434.8C171.7 432.7 214.3 454.3 257.2 456.5C300 458.7 343 441.3 385.8 440.5C428.7 439.7 471.3 455.3 514.2 468.5C557 481.7 600 492.3 642.8 487.3C685.7 482.3 728.3 461.7 771.2 446.3C814 431 857 421 878.5 416L900 411L900 601L878.5 601C857 601 814 601 771.2 601C728.3 601 685.7 601 642.8 601C600 601 557 601 514.2 601C471.3 601 428.7 601 385.8 601C343 601 300 601 257.2 601C214.3 601 171.7 601 128.8 601C86 601 43 601 21.5 601L0 601Z" fill="#e95667"></path><path d="M0 503L21.5 503.8C43 504.7 86 506.3 128.8 508.3C171.7 510.3 214.3 512.7 257.2 519C300 525.3 343 535.7 385.8 542.7C428.7 549.7 471.3 553.3 514.2 543.3C557 533.3 600 509.7 642.8 504.3C685.7 499 728.3 512 771.2 522C814 532 857 539 878.5 542.5L900 546L900 601L878.5 601C857 601 814 601 771.2 601C728.3 601 685.7 601 642.8 601C600 601 557 601 514.2 601C471.3 601 428.7 601 385.8 601C343 601 300 601 257.2 601C214.3 601 171.7 601 128.8 601C86 601 43 601 21.5 601L0 601Z" fill="#c62368"></path></svg>